<svg t="1739698228844" class="icon" viewBox="0 0 1024 1024" version="1.1"
    xmlns="http://www.w3.org/2000/svg" p-id="3788" xmlns:xlink="http://www.w3.org/1999/xlink"
    width="128" height="128">
    <path
        d="M512 938.666667c-235.52-0.256-426.410667-191.146667-426.666667-426.666667v-8.533333C90.026667 269.013333 283.093333 82.261333 517.546667 85.333333c234.538667 3.157333 422.570667 194.944 421.034666 429.44C937.045333 749.312 746.538667 938.666667 512 938.666667z m0-768a341.333333 341.333333 0 1 0 341.333333 341.333333 341.717333 341.717333 0 0 0-341.333333-341.333333z m0 554.666666l-60.16-60.16L561.92 554.666667H298.666667v-85.333334h263.253333l-110.08-110.506666L512 298.666667l213.333333 213.333333-213.333333 213.333333z"
        p-id="3789" fill="#55ffff"></path>
</svg>