<svg t="1729522660287" class="icon" viewBox="0 0 1024 1024" version="1.1"
    xmlns="http://www.w3.org/2000/svg" p-id="3614" width="128" height="128"
    xmlns:xlink="http://www.w3.org/1999/xlink">
    <path
        d="M747.072 719.104a29.632 29.632 0 0 0 0-41.92L580.864 511.04l166.208-166.208a29.632 29.632 0 0 0 0-41.856l-25.984-26.048a29.632 29.632 0 0 0-41.92 0L513.024 443.136 346.816 276.928a29.632 29.632 0 0 0-41.856 0l-26.048 26.048a29.632 29.632 0 0 0 0 41.856l166.208 166.144-166.208 166.208a29.632 29.632 0 0 0 0 41.856l26.048 26.048c11.52 11.52 30.272 11.52 41.856 0l166.144-166.208 166.208 166.208c11.52 11.52 30.336 11.52 41.856 0l26.048-25.984z"
        fill="#55ffff" p-id="3615"></path>
</svg>