<svg t="1729511855104" class="icon" viewBox="0 0 1024 1024" version="1.1"
    xmlns="http://www.w3.org/2000/svg" p-id="6615" xmlns:xlink="http://www.w3.org/1999/xlink"
    width="128" height="128">
    <path
        d="M945.95111 14.05433c-18.739106-18.739106-49.131274-18.739106-67.890861 0l-202.157069 202.157069c-51.93702-15.749041-106.946025-24.227719-163.90062-24.227719-223.312803 0-416.888796 130.04735-511.99744 319.9984 41.123634 82.124389 100.638217 153.046275 173.014175 207.092725l-158.964965 158.964965c-18.739106 18.739106-18.739106 49.131274 0 67.890861 9.379793 9.379793 21.647252 14.06969 33.93519 14.06969s24.575877-4.689897 33.93519-14.04921l864.00592-864.00592c18.739106-18.739106 18.739106-49.131274 0-67.890861zM416.01328 320.00352c42.250029 0 78.08985 27.299704 90.910265 65.187514l-121.732511 121.732511c-37.90829-12.840896-65.187514-48.680717-65.187514-90.910265 0-53.022455 42.987305-96.00976 96.00976-96.00976zM110.125529 512.00256c38.297409-60.518097 89.271874-111.92264 149.441813-150.301968 3.91166-2.498548 7.884761-4.915175 11.857861-7.290844-9.95323 27.320183-15.421363 56.831716-15.421363 87.592522 0 54.886126 17.285034 105.737711 46.694167 147.414303l-60.927695 60.927695c-52.449018-36.843336-97.197594-83.885661-131.665262-138.341708z"
        fill="#55ffff" p-id="6616"></path>
    <path
        d="M768.00128 442.00227c0-27.156344-4.259819-53.329653-12.103619-77.90553l-321.800631 321.800631c24.575877 7.843801 50.749186 12.08314 77.90553 12.08314 141.372733 0 255.99872-114.625987 255.99872-255.99872z"
        fill="#55ffff" p-id="6617"></path>
    <path
        d="M830.03489 289.97999l-69.365413 69.365413c1.269754 0.778236 2.539507 1.576952 3.788781 2.375668 60.169939 38.379328 111.144404 89.763391 149.441813 150.301968-38.297409 60.518097-89.271874 111.92264-149.441813 150.301968-75.591302 48.209679-162.897106 73.707151-252.455698 73.707151-38.666047 0-76.902015-4.751336-113.97063-14.04921l-76.902015 76.902015c59.719381 21.462933 123.94434 33.136474 190.852166 33.136474 223.312803 0 416.868316-130.04735 511.99744-319.9984-45.014815-89.90675-112.127439-166.399168-193.96511-222.02257z"
        fill="#55ffff" p-id="6618"></path>
</svg>