<svg t="1740208131794" class="icon" viewBox="0 0 1024 1024" version="1.1"
    xmlns="http://www.w3.org/2000/svg" p-id="1793"
    data-spm-anchor-id="a313x.search_index.0.i3.61fb3a81enxySc"
    xmlns:xlink="http://www.w3.org/1999/xlink" width="128" height="128">
    <path
        d="M711.111111 227.555556C789.504 227.555556 853.333333 304.128 853.333333 398.222222c0 179.427556-217.201778 325.006222-341.333333 386.844445-124.245333-61.952-341.333333-207.473778-341.333333-386.844445 0-94.094222 63.829333-170.666667 142.222222-170.666666 36.579556 0 76.629333 25.031111 107.121778 66.958222l46.023111 50.403555a56.888889 56.888889 0 0 0 91.989333 0l46.023111-50.403555C634.538667 252.586667 674.588444 227.555556 711.168 227.555556z m0-113.777778c-80.497778 0-152.177778 49.265778-199.111111 113.777778-46.933333-64.512-118.613333-113.777778-199.111111-113.777778C171.52 113.777778 56.888889 241.152 56.888889 398.222222c0 325.347556 455.111111 512 455.111111 512s455.111111-186.652444 455.111111-512c0-157.070222-114.631111-284.444444-256-284.444444z"
        fill="#ff5555" p-id="1794"></path>
</svg>