<svg t="1740148659661" class="icon" viewBox="0 0 1024 1024" version="1.1"
    xmlns="http://www.w3.org/2000/svg" p-id="7312" xmlns:xlink="http://www.w3.org/1999/xlink"
    width="128" height="128">
    <path
        d="M170.666667 955.733333c-66.030933 0-102.4-36.369067-102.4-102.4V341.333333c0-4.420267 1.6896-8.465067 4.4544-11.485866l0.017066-0.017067a7.9872 7.9872 0 0 1 0.529067-0.546133l256-256 1.006933-0.938667s0-0.034133 0.017067-0.017067l0.034133-0.034133a16.9472 16.9472 0 0 1 10.257067-3.9936c0.3072-0.034133 0.580267 0 0.887467-0.034133H682.666667c66.030933 0 102.4 36.369067 102.4 102.4v342.186666a17.066667 17.066667 0 1 1-34.133334 0V170.666667c0-47.223467-21.0432-68.266667-68.266666-68.266667H358.4v238.933333a17.066667 17.066667 0 0 1-17.066667 17.066667H102.4v494.933333c0 47.223467 21.0432 68.266667 68.266667 68.266667h517.973333c41.5232-1.3824 60.910933-20.7872 62.3104-62.8736 0.324267-9.437867 8.516267-17.066667 17.6128-16.4864a17.066667 17.066667 0 0 1 16.4864 17.6128c-1.979733 59.835733-36.010667 93.866667-95.8464 95.8464L170.666667 955.733333zM126.532267 324.266667H324.266667V126.532267L126.532267 324.266667zM768 785.066667a17.066667 17.066667 0 1 1 0-34.133334h87.04c17.390933-0.443733 32.546133-7.185067 45.960533-20.599466C914.9952 717.243733 921.6 701.781333 921.6 682.666667c0-18.7904-6.741333-34.645333-20.599467-48.520534-12.3904-12.373333-27.682133-18.8416-46.7968-19.7632L768 614.4a17.066667 17.066667 0 1 1 0-34.133333h87.04c28.398933 1.365333 51.712 11.3664 70.0928 29.7472C945.425067 630.3232 955.733333 654.762667 955.733333 682.666667c0 28.706133-10.427733 52.992-31.010133 72.209066-19.2 19.2-42.6496 29.508267-69.256533 30.190934H768z m-85.333333 0h-87.04c-27.613867-0.682667-51.063467-10.683733-70.0928-29.7472C505.224533 735.010133 494.933333 710.570667 494.933333 682.666667c0-28.023467 10.359467-52.258133 30.805334-72.004267 19.4048-19.421867 42.837333-29.713067 69.461333-30.395733H682.666667a17.066667 17.066667 0 1 1 0 34.133333h-87.04c-17.390933 0.443733-32.5632 7.185067-45.960534 20.599467C535.739733 648.465067 529.066667 663.995733 529.066667 682.666667c0 18.7904 6.741333 34.645333 20.599466 48.520533 12.834133 12.834133 28.0064 19.3024 46.3872 19.746133H682.666667a17.066667 17.066667 0 1 1 0 34.133334z"
        p-id="7313" fill="#ff55ff"></path>
    <path
        d="M820.053333 716.8h-187.733333a34.133333 34.133333 0 0 1 0-68.266667h187.733333a34.133333 34.133333 0 0 1 0 68.266667z"
        p-id="7314" fill="#ff55ff"></path>
</svg>