<svg t="1740149993151" class="icon" viewBox="0 0 1024 1024" version="1.1"
    xmlns="http://www.w3.org/2000/svg" p-id="17275" xmlns:xlink="http://www.w3.org/1999/xlink"
    width="128" height="128">
    <path
        d="M859.769485 507.68627a42.659451 42.659451 0 0 1-61.426342-58.853298l74.209883-77.640609a167.635919 167.635919 0 0 0-16.214267-228.20458c-64.407807-66.980852-159.528786-72.943782-213.256415-16.643109L435.768439 343.889497a167.635919 167.635919 0 0 0 16.214267 228.20458 42.659451 42.659451 0 1 1-60.568661 60.13982c-96.080765-92.854248-103.18727-244.48011-16.214267-345.931596L582.493263 70.044001c89.158049-92.976774 240.579701-85.298482 336.987201 17.071949a252.525981 252.525981 0 0 1 14.907324 342.092449L859.769485 507.665849z"
        fill="#ff55ff" p-id="17276"></path>
    <path
        d="M149.976663 521.347913a42.659451 42.659451 0 0 1 61.426342 58.853298l-74.209883 77.640609a167.635919 167.635919 0 0 0 16.193846 228.20458c64.407807 66.960431 159.528786 72.923361 213.276835 16.622687L573.977709 685.124265a167.635919 167.635919 0 0 0-16.214267-228.20458 42.659451 42.659451 0 1 1 60.568661-60.13982c96.080765 92.874669 103.18727 244.500531 16.214267 345.931596L427.232464 958.969761c-89.137628 92.997195-240.55928 85.318902-336.94636-17.051528a252.525981 252.525981 0 0 1-14.948165-342.09245l74.638724-78.47787z"
        fill="#ff55ff" p-id="17277"></path>
</svg>